<?xml version="1.0" standalone="no"?>
<!DOCTYPE svg PUBLIC "-//W3C//DTD SVG 20010904//EN"
 "http://www.w3.org/TR/2001/REC-SVG-20010904/DTD/svg10.dtd">
<svg version="1.0" xmlns="http://www.w3.org/2000/svg"
 width="1000.000000pt" height="256.000000pt" viewBox="0 0 1000.000000 256.000000"
 preserveAspectRatio="xMidYMid meet">

<g transform="translate(0.000000,256.000000) scale(0.100000,-0.100000)"
fill="#000000" stroke="none">
<path d="M772 2125 c-11 -14 -25 -25 -32 -25 -9 0 -9 4 1 18 13 15 12 16 -3 3
-22 -16 -23 -27 -4 -34 9 -4 25 8 41 29 14 19 24 34 21 34 -2 0 -13 -11 -24
-25z"/>
<path d="M2020 2130 c-16 -16 -18 -25 -10 -45 23 -60 68 -104 91 -89 6 4 2 12
-10 21 -23 15 -76 101 -69 109 3 2 24 -20 48 -51 23 -30 46 -55 50 -55 4 0 14
7 21 16 11 14 10 21 -5 47 l-18 32 21 -19 c12 -11 24 -16 28 -13 10 11 -29 48
-45 42 -7 -3 -23 2 -35 10 -29 20 -43 19 -67 -5z m79 -35 c39 -42 50 -61 33
-53 -15 6 -94 98 -85 98 6 0 29 -20 52 -45z"/>
<path d="M726 2061 c-4 -6 -2 -11 4 -11 6 0 8 -6 4 -12 -6 -10 -4 -10 7 0 9 9
10 15 2 23 -8 8 -13 8 -17 0z"/>
<path d="M1500 2060 c13 -9 13 -11 0 -20 -8 -5 -21 -10 -27 -10 -17 0 -16 -12
1 -36 8 -10 18 -16 22 -12 4 4 1 14 -6 23 -10 12 -8 16 11 23 69 26 69 26 69
-13 0 -20 -5 -46 -11 -57 -8 -16 -8 -19 1 -13 16 10 40 68 40 96 0 19 -4 21
-35 16 -19 -3 -37 -1 -40 4 -4 5 -14 9 -23 9 -15 0 -15 -2 -2 -10z"/>
<path d="M1636 2003 c-14 -30 -15 -34 -2 -24 13 11 17 9 27 -15 6 -16 13 -24
16 -17 2 7 -1 21 -7 33 -6 11 -8 30 -5 40 11 34 -11 22 -29 -17z"/>
<path d="M1390 1909 c-13 -6 -40 -12 -60 -13 -19 -2 -64 -11 -100 -20 -80 -19
-80 -19 -80 -2 0 24 -27 38 -60 31 -16 -4 -30 -12 -30 -18 0 -6 -8 -19 -17
-29 -13 -14 -14 -21 -5 -30 31 -31 -8 -49 -118 -55 -149 -7 -170 -21 -170
-118 l0 -51 98 4 c82 4 100 1 111 -12 12 -14 11 -20 -8 -40 -32 -34 -19 -56
33 -56 68 0 137 56 91 74 -22 8 -18 33 8 51 13 8 75 25 138 37 l115 22 -13 55
c-15 66 -16 110 -4 130 5 8 31 17 57 20 26 4 49 12 52 19 4 14 -4 14 -38 1z"/>
<path d="M667 1867 c-3 -8 1 -14 9 -14 8 0 14 6 14 14 0 7 -4 13 -9 13 -5 0
-11 -6 -14 -13z"/>
<path d="M2294 1836 c-9 -24 3 -61 30 -93 47 -56 -6 -75 -61 -21 -45 43 -42
18 4 -32 27 -31 43 -40 62 -38 24 3 26 7 29 63 2 42 -3 70 -15 94 -20 39 -40
50 -49 27z m46 -58 c0 -6 -7 -5 -15 2 -8 7 -15 17 -15 22 0 6 7 5 15 -2 8 -7
15 -17 15 -22z"/>
<path d="M655 1832 c3 -3 0 -11 -7 -19 -6 -7 -9 -16 -6 -19 3 -2 12 6 21 19
13 20 13 24 1 24 -8 0 -12 -3 -9 -5z"/>
<path d="M610 1815 c-7 -8 -25 -15 -41 -15 -15 0 -31 -5 -34 -11 -5 -7 5 -8
29 -4 32 6 36 5 36 -14 0 -21 24 -29 35 -11 3 5 0 7 -9 4 -11 -4 -14 1 -12 18
1 13 6 29 10 36 10 17 1 15 -14 -3z"/>
<path d="M3040 1740 c0 -12 8 -21 23 -24 12 -3 33 -7 48 -10 19 -4 32 -19 52
-63 14 -32 98 -215 186 -408 204 -445 201 -439 228 -443 28 -4 40 14 149 236
l86 174 77 -170 c114 -249 128 -269 167 -223 9 10 93 192 185 403 92 211 178
403 190 427 23 43 52 63 112 76 18 4 27 12 27 25 0 19 -7 20 -160 20 -152 0
-160 -1 -160 -20 0 -14 9 -21 38 -26 46 -8 62 -20 62 -48 0 -18 -273 -682
-286 -695 -2 -2 -45 80 -94 183 l-91 187 76 143 c95 180 124 221 164 229 22 5
31 12 31 27 0 19 -6 20 -130 20 -111 0 -132 -2 -137 -16 -7 -18 12 -34 43 -34
12 0 27 -7 34 -15 11 -13 2 -37 -52 -148 l-65 -132 -62 124 c-70 143 -75 166
-31 175 21 4 30 11 30 26 0 19 -6 20 -140 20 -134 0 -140 -1 -140 -20 0 -15 9
-22 30 -27 36 -7 60 -46 171 -281 l73 -153 -74 -150 c-41 -82 -78 -148 -83
-146 -8 2 -165 334 -263 556 -30 68 -54 133 -52 145 2 16 12 22 43 26 32 4 41
9 43 28 l3 22 -175 0 c-169 0 -176 -1 -176 -20z"/>
<path d="M9136 1722 c-8 -16 -87 -198 -175 -406 -89 -207 -168 -390 -176 -406
-18 -35 -53 -60 -98 -69 -19 -4 -33 -14 -35 -24 -3 -15 11 -17 163 -17 153 0
166 1 163 18 -2 10 -14 18 -28 20 -98 11 -101 22 -45 169 25 65 53 124 62 131
20 14 328 18 337 3 3 -4 26 -65 50 -135 45 -126 45 -127 26 -146 -13 -13 -34
-20 -60 -20 -33 0 -40 -3 -40 -20 0 -19 7 -20 186 -20 171 0 185 1 182 18 -2
9 -14 18 -28 20 -47 6 -81 25 -96 54 -8 16 -82 206 -164 423 -82 216 -153 403
-160 414 -15 30 -47 26 -64 -7z m77 -327 l64 -180 -140 -3 c-77 -1 -142 -1
-144 2 -2 2 29 87 69 190 40 102 76 182 79 178 4 -4 36 -88 72 -187z"/>
<path d="M1787 1703 c-13 -3 -15 -8 -8 -16 11 -14 2 -137 -10 -137 -4 0 -18
15 -31 33 -12 17 -33 40 -45 50 -13 10 -21 23 -18 28 7 10 -6 12 -28 4 -10 -4
-4 -16 24 -43 26 -27 36 -45 34 -62 -1 -14 0 -17 2 -6 4 16 8 15 38 -14 l33
-32 5 29 c3 15 9 55 12 88 4 33 12 66 17 73 11 12 7 13 -25 5z"/>
<path d="M1715 1680 c-11 -5 -14 -9 -7 -9 6 -1 13 -11 13 -23 1 -21 2 -21 6
-3 3 11 10 26 15 33 12 14 2 15 -27 2z"/>
<path d="M2463 1670 c-34 -14 -28 -21 7 -9 17 6 30 13 30 15 0 6 -12 4 -37 -6z"/>
<path d="M1555 1640 c-14 -6 -15 -9 -5 -9 9 -1 45 -36 80 -78 45 -53 66 -72
68 -60 2 9 -19 43 -47 75 -28 32 -51 64 -51 70 0 14 -16 14 -45 2z"/>
<path d="M487 1504 c3 -8 16 -17 29 -20 40 -10 28 -27 -13 -20 -34 6 -36 5
-20 -7 11 -10 17 -28 17 -56 0 -43 7 -50 29 -28 10 10 12 7 9 -13 -4 -33 -35
-39 -47 -8 -9 22 -10 22 -10 2 -1 -11 8 -29 20 -40 20 -18 21 -18 35 1 24 32
12 97 -15 81 -7 -5 -11 3 -11 20 0 24 3 26 30 21 17 -4 30 -2 30 3 0 6 -4 10
-9 10 -5 0 -11 9 -13 21 -2 12 -16 26 -35 34 -27 12 -31 11 -26 -1z"/>
<path d="M4473 1455 c-8 -22 6 -35 37 -35 63 0 60 14 60 -285 0 -204 -3 -276
-12 -281 -7 -4 -28 -10 -48 -14 -22 -3 -36 -12 -38 -23 -3 -16 10 -17 158 -17
148 0 161 1 158 17 -2 11 -16 20 -38 23 -20 4 -41 10 -48 14 -9 5 -12 77 -12
281 l0 275 25 5 c14 3 37 7 51 10 17 4 24 11 22 23 -3 15 -20 17 -156 19 -122
1 -154 -2 -159 -12z"/>
<path d="M4902 1447 c2 -17 11 -23 38 -25 19 -2 41 -8 47 -14 10 -8 13 -75 13
-274 0 -260 0 -263 -22 -278 -12 -9 -35 -16 -50 -16 -21 0 -28 -5 -28 -20 0
-19 7 -20 151 -20 135 0 150 2 147 17 -2 9 -18 21 -36 27 -18 6 -37 18 -42 26
-5 8 -10 66 -10 128 0 103 1 112 19 112 27 0 50 -22 151 -149 56 -71 90 -122
90 -137 0 -24 1 -24 105 -24 94 0 105 2 105 18 0 13 -13 21 -43 29 -36 10 -53
25 -118 105 -42 51 -98 119 -123 150 -56 67 -58 60 51 185 95 110 113 123 171
131 37 6 48 11 50 28 3 19 -2 20 -130 20 -118 -1 -133 -3 -136 -18 -2 -12 6
-21 22 -28 46 -17 31 -53 -72 -164 -56 -61 -101 -96 -123 -96 -18 0 -19 8 -19
113 0 61 4 118 9 125 5 8 24 17 42 21 25 5 34 12 34 26 0 19 -8 20 -148 22
-147 2 -148 2 -145 -20z"/>
<path d="M5682 1447 c2 -17 11 -23 38 -25 19 -2 41 -8 47 -14 10 -8 13 -75 13
-274 0 -260 0 -263 -22 -278 -12 -9 -35 -16 -50 -16 -21 0 -28 -5 -28 -20 0
-19 7 -20 155 -20 148 0 155 1 155 20 0 15 -7 20 -28 20 -15 0 -38 7 -50 16
-22 15 -22 18 -22 278 0 199 3 266 13 274 6 6 28 12 47 14 27 2 36 8 38 24 3
21 1 22 -153 22 -154 0 -156 0 -153 -21z"/>
<path d="M6112 1447 c2 -13 11 -23 23 -25 11 -1 30 -5 43 -8 l22 -4 -2 -278
-3 -277 -45 -11 c-28 -7 -46 -17 -48 -27 -3 -15 13 -17 158 -17 147 0 161 2
158 17 -2 11 -18 20 -43 25 -58 12 -65 27 -65 138 l0 95 74 -3 c172 -9 276 84
264 235 -6 66 -29 100 -94 133 -46 24 -57 25 -247 27 l-198 2 3 -22z m369 -37
c33 -18 52 -70 52 -140 0 -111 -43 -160 -138 -160 -83 0 -85 3 -85 146 0 69 5
134 10 145 9 16 22 19 76 19 36 0 74 -5 85 -10z"/>
<path d="M6762 1445 c2 -15 12 -21 40 -23 25 -2 41 -10 48 -23 7 -13 10 -110
8 -275 -3 -240 -4 -257 -22 -270 -11 -8 -32 -14 -48 -14 -21 0 -28 -5 -28 -20
0 -19 7 -20 264 -20 l263 0 6 43 c3 23 9 61 13 85 9 59 -18 58 -45 -2 -27 -62
-58 -76 -174 -76 -59 0 -97 4 -105 12 -8 8 -12 53 -12 135 l0 123 69 0 c73 0
85 -6 96 -53 4 -16 14 -27 24 -27 14 0 16 14 16 105 0 91 -2 105 -17 105 -10
0 -21 -13 -28 -34 -13 -41 -24 -46 -101 -46 l-59 0 0 115 0 115 28 11 c36 15
166 4 197 -17 13 -8 34 -36 45 -60 14 -29 28 -44 41 -44 10 0 16 5 14 13 -3 6
-8 46 -13 87 l-7 75 -258 0 c-252 0 -258 0 -255 -20z"/>
<path d="M7442 1446 c2 -16 12 -22 43 -26 l40 -5 3 -275 c3 -303 3 -300 -60
-300 -22 0 -28 -5 -28 -21 0 -20 3 -20 238 -17 223 3 240 4 288 26 64 29 116
82 146 147 19 41 23 67 23 150 0 115 -17 164 -81 235 -81 89 -164 110 -432
108 -179 -2 -183 -2 -180 -22z m434 -50 c95 -44 134 -127 134 -285 0 -118 -18
-178 -66 -220 -42 -37 -90 -51 -179 -51 -121 0 -115 -16 -115 300 0 205 3 270
13 273 6 3 46 6 87 6 59 1 86 -4 126 -23z"/>
<path d="M8272 1447 c2 -17 11 -23 38 -25 19 -2 41 -8 47 -14 10 -8 13 -75 13
-274 0 -260 0 -263 -22 -278 -12 -9 -35 -16 -50 -16 -21 0 -28 -5 -28 -20 0
-19 7 -20 155 -20 148 0 155 1 155 20 0 15 -7 20 -28 20 -15 0 -38 7 -50 16
-22 15 -22 18 -22 279 0 196 3 266 12 271 7 4 28 10 48 14 26 4 36 11 38 27 3
20 0 21 -153 21 -154 0 -156 0 -153 -21z"/>
<path d="M2464 1399 l11 -52 -45 -40 c-34 -30 -39 -39 -22 -34 20 5 22 1 23
-31 0 -30 2 -33 9 -17 5 11 9 34 9 52 2 56 21 48 22 -9 1 -44 2 -48 8 -23 10
42 -2 198 -15 202 -8 3 -8 -11 0 -48z"/>
<path d="M959 1410 c-71 -38 -69 -134 3 -164 l33 -14 -27 -7 c-16 -4 -34 -5
-42 -2 -10 4 -12 0 -9 -14 5 -19 28 -23 69 -11 17 6 20 11 13 30 -5 12 -13 22
-18 22 -16 0 -41 55 -41 90 0 34 38 80 65 80 9 0 30 -13 46 -29 22 -23 29 -39
29 -69 0 -23 -6 -45 -15 -52 -8 -7 -15 -23 -15 -37 0 -22 3 -23 38 -18 57 10
61 12 55 35 -3 12 -9 17 -12 12 -3 -5 -22 -13 -41 -17 l-34 -8 32 37 c18 20
32 46 32 57 0 36 -28 76 -61 88 -43 15 -58 13 -100 -9z"/>
<path d="M2413 1393 c-12 -38 -6 -63 18 -63 35 0 37 76 2 87 -6 2 -15 -9 -20
-24z m27 -18 c0 -14 -4 -25 -10 -25 -11 0 -14 33 -3 43 11 11 13 8 13 -18z"/>
<path d="M1968 1248 c-22 -8 -25 -13 -17 -26 8 -13 2 -36 -27 -97 l-37 -80
-18 70 c-14 54 -15 72 -6 84 10 12 9 13 -8 7 -11 -5 -28 -11 -38 -13 -14 -4
-15 -8 -6 -19 20 -24 49 -167 37 -181 -13 -16 -3 -15 42 2 19 7 27 14 18 14
-25 1 -22 16 21 101 l38 74 12 -52 c14 -67 14 -85 -1 -100 -8 -8 6 -6 35 5 36
13 43 19 30 24 -25 9 -61 178 -41 190 17 11 0 10 -34 -3z"/>
<path d="M2432 1105 c0 -16 2 -22 5 -12 2 9 2 23 0 30 -3 6 -5 -1 -5 -18z"/>
<path d="M490 1069 c0 -5 5 -7 11 -3 6 3 25 -4 42 -16 l32 -23 -24 26 c-24 27
-61 37 -61 16z"/>
<path d="M2265 1020 c10 -11 20 -20 23 -20 3 0 -3 9 -13 20 -10 11 -20 20 -23
20 -3 0 3 -9 13 -20z"/>
<path d="M504 1015 c3 -9 6 -19 6 -21 0 -3 4 -3 9 0 14 9 71 -15 71 -30 0 -8
-6 -11 -15 -8 -9 4 -15 0 -15 -9 0 -10 7 -13 20 -10 14 4 20 0 20 -11 0 -9 -5
-16 -11 -16 -5 0 -7 -5 -4 -10 4 -6 11 -8 16 -5 5 4 13 -5 19 -19 19 -51 19
-25 -1 31 -12 36 -16 59 -9 61 20 7 9 21 -22 27 -18 4 -46 14 -62 22 -26 14
-28 14 -22 -2z"/>
<path d="M2391 964 c-12 -15 -22 -31 -22 -35 -1 -5 -2 -13 -3 -18 0 -5 -4 -13
-8 -17 -15 -14 -8 -26 7 -14 28 23 28 1 1 -40 -31 -47 -34 -71 -6 -45 25 23
60 99 60 131 0 13 5 24 10 24 6 0 10 9 10 20 0 28 -25 25 -49 -6z"/>
<path d="M1042 900 l-19 -40 22 -14 c21 -14 24 -13 44 15 13 17 20 34 16 37
-6 7 -30 -19 -38 -42 -3 -8 -8 -8 -17 1 -10 9 -8 18 9 42 12 16 17 32 12 35
-5 3 -18 -12 -29 -34z"/>
<path d="M1145 911 c-4 -17 -11 -33 -16 -36 -14 -10 -10 -25 5 -19 10 4 17 -9
25 -46 6 -28 11 -58 11 -67 0 -10 6 -13 16 -9 9 3 25 6 36 6 16 0 19 5 15 26
-3 19 1 28 17 35 l21 10 -22 -5 c-27 -5 -38 20 -15 34 16 11 16 11 0 6 -25 -7
-28 17 -4 31 17 10 18 12 4 13 -11 0 -15 5 -12 15 4 8 1 15 -5 15 -6 0 -16
-11 -21 -25 -6 -15 -17 -25 -30 -25 -24 0 -25 8 -5 30 13 15 14 19 1 29 -12
10 -15 7 -21 -18z m53 -69 c2 -7 -3 -12 -12 -12 -9 0 -16 7 -16 16 0 17 22 14
28 -4z m12 -41 c0 -11 3 -26 6 -35 4 -10 1 -16 -9 -16 -21 0 -33 20 -17 30 8
5 7 9 -5 14 -19 7 -11 26 11 26 8 0 14 -9 14 -19z"/>
<path d="M1100 831 c0 -5 7 -11 15 -15 8 -3 15 -1 15 3 0 5 -7 11 -15 15 -8 3
-15 1 -15 -3z"/>
<path d="M1036 815 c-20 -15 -5 -30 20 -21 14 5 22 -7 38 -58 12 -37 15 -9 4
30 -6 21 -11 42 -10 45 3 14 -35 16 -52 4z"/>
<path d="M1115 770 c3 -5 11 -10 16 -10 6 0 7 5 4 10 -3 6 -11 10 -16 10 -6 0
-7 -4 -4 -10z"/>
<path d="M1050 750 c0 -19 3 -21 12 -12 9 9 9 15 0 24 -9 9 -12 7 -12 -12z"/>
<path d="M1917 763 c-4 -3 -7 -15 -7 -25 0 -14 8 -18 41 -18 l40 0 -6 -47 c-4
-27 -9 -56 -12 -65 -7 -27 16 -22 26 5 5 13 12 53 16 90 l7 67 -49 0 c-27 0
-53 -3 -56 -7z"/>
<path d="M1263 753 c9 -2 23 -2 30 0 6 3 -1 5 -18 5 -16 0 -22 -2 -12 -5z"/>
<path d="M2120 711 c0 -10 19 -25 25 -20 1 2 -3 10 -11 17 -8 7 -14 8 -14 3z"/>
<path d="M718 633 c7 -3 16 -2 19 1 4 3 -2 6 -13 5 -11 0 -14 -3 -6 -6z"/>
<path d="M763 614 c9 -11 17 -26 17 -32 0 -7 5 -12 10 -12 18 0 11 16 -17 41
-20 17 -23 18 -10 3z"/>
<path d="M838 535 c18 -15 30 -31 27 -36 -4 -5 2 -9 11 -9 15 0 14 4 -7 26
-13 14 -33 30 -44 36 -11 5 -5 -2 13 -17z"/>
<path d="M1180 512 c0 -4 17 -6 38 -4 58 5 62 10 10 11 -27 1 -48 -3 -48 -7z"/>
<path d="M1230 490 c0 -5 5 -10 11 -10 5 0 7 5 4 10 -3 6 -8 10 -11 10 -2 0
-4 -4 -4 -10z"/>
<path d="M1972 489 c-12 -5 -27 -20 -32 -34 -6 -16 -14 -23 -25 -19 -18 7 -75
-14 -75 -27 0 -25 107 17 126 50 8 14 13 17 9 7 -4 -14 -2 -16 7 -8 7 5 26 12
42 14 16 1 31 10 34 18 4 12 2 13 -9 3 -15 -15 -46 -17 -51 -4 -2 5 -13 5 -26
0z"/>
<path d="M1380 458 c26 -31 -10 -55 -56 -38 -14 6 -26 6 -29 0 -4 -6 -21 -10
-38 -11 l-32 -1 29 -9 c18 -5 34 -5 41 1 7 6 32 8 56 5 24 -3 51 -1 59 4 13 9
11 14 -12 36 -16 14 -23 20 -18 13z"/>
<path d="M1196 441 c-4 -5 3 -7 14 -4 11 3 28 -1 38 -8 15 -13 16 -12 3 4 -14
18 -46 23 -55 8z"/>
<path d="M1446 331 c10 -10 43 -15 83 -13 41 3 14 15 -41 19 -32 2 -48 -1 -42
-6z"/>
</g>
</svg>
