<svg width="762" height="1208" viewBox="0 0 762 1208" fill="none" xmlns="http://www.w3.org/2000/svg">
<rect x="2" y="2" width="758" height="1204" rx="40" fill="#202020" stroke="white" stroke-width="4"/>
<rect x="38" y="32" width="687" height="173" rx="23" fill="#BED380"/>
<rect x="38" y="340" width="283" height="646" rx="23" fill="#FACFD6"/>
<rect x="341" y="340" width="384" height="463" rx="23" fill="#77C4EB"/>
<rect x="341" y="817" width="384" height="169" rx="23" fill="#00A8FF"/>
<rect x="38" y="1000" width="687" height="169" rx="23" fill="#421983"/>
<rect x="356" y="423" width="355" height="341" rx="23" fill="#6EFF8E"/>
<rect x="368" y="515" width="330" height="100" rx="8" fill="#FFF2B5"/>
<rect x="368" y="629" width="330" height="100" rx="8" fill="#EDFFA8"/>
<rect x="38" y="219" width="687" height="88" rx="23" fill="#FFF2B5"/>
<path d="M261.984 107.744L241.184 119.904L261.984 131.808L257.376 139.04L232.48 123.552V116.32L257.504 100.768L261.984 107.744ZM280.967 109.408C283.826 106.379 287.154 104.864 290.951 104.864C293.938 104.864 296.242 105.76 297.863 107.552C299.484 109.301 300.295 111.797 300.295 115.04V140H290.183V117.856C290.183 115.808 289.948 114.379 289.479 113.568C289.01 112.757 288.156 112.352 286.919 112.352C285.895 112.352 284.892 112.715 283.911 113.44C282.972 114.123 281.991 115.147 280.967 116.512V140H270.855V92.512L280.967 91.488V109.408ZM317.998 125.984C318.638 131.147 321.369 133.728 326.19 133.728C329.091 133.728 331.993 132.789 334.894 130.912L338.926 136.416C337.262 137.867 335.278 139.019 332.974 139.872C330.67 140.683 328.131 141.088 325.358 141.088C321.561 141.088 318.339 140.341 315.694 138.848C313.049 137.312 311.043 135.2 309.678 132.512C308.355 129.781 307.694 126.624 307.694 123.04C307.694 119.627 308.334 116.555 309.614 113.824C310.937 111.051 312.835 108.875 315.31 107.296C317.827 105.675 320.814 104.864 324.27 104.864C327.513 104.864 330.329 105.568 332.718 106.976C335.107 108.341 336.942 110.347 338.222 112.992C339.545 115.595 340.206 118.709 340.206 122.336C340.206 123.744 340.142 124.96 340.014 125.984H317.998ZM324.27 111.648C322.435 111.648 320.963 112.331 319.854 113.696C318.745 115.019 318.083 117.067 317.87 119.84H330.35C330.265 114.379 328.238 111.648 324.27 111.648ZM376.213 130.208C376.213 131.445 376.384 132.363 376.725 132.96C377.066 133.557 377.642 134.005 378.453 134.304L376.341 140.96C374.293 140.747 372.586 140.299 371.221 139.616C369.856 138.891 368.789 137.845 368.021 136.48C366.741 137.973 365.12 139.125 363.157 139.936C361.194 140.704 359.104 141.088 356.885 141.088C353.386 141.088 350.592 140.107 348.501 138.144C346.41 136.139 345.365 133.557 345.365 130.4C345.365 126.731 346.816 123.893 349.717 121.888C352.618 119.84 356.693 118.816 361.941 118.816H366.485V117.6C366.485 114.101 364.245 112.352 359.765 112.352C358.613 112.352 357.162 112.523 355.413 112.864C353.706 113.163 352.042 113.589 350.421 114.144L348.117 107.424C350.293 106.613 352.554 105.995 354.901 105.568C357.29 105.099 359.445 104.864 361.365 104.864C371.264 104.864 376.213 108.875 376.213 116.896V130.208ZM360.341 133.856C361.493 133.856 362.645 133.536 363.797 132.896C364.992 132.213 365.888 131.296 366.485 130.144V124.576H363.989C358.528 124.576 355.797 126.283 355.797 129.696C355.797 131.019 356.181 132.043 356.949 132.768C357.76 133.493 358.89 133.856 360.341 133.856ZM415.42 92.512V140H406.46L405.948 136.288C404.924 137.739 403.623 138.912 402.044 139.808C400.465 140.661 398.631 141.088 396.54 141.088C392.444 141.088 389.329 139.467 387.196 136.224C385.105 132.981 384.06 128.544 384.06 122.912C384.06 119.413 384.615 116.299 385.724 113.568C386.833 110.837 388.412 108.704 390.46 107.168C392.508 105.632 394.897 104.864 397.628 104.864C400.7 104.864 403.26 105.931 405.308 108.064V91.424L415.42 92.512ZM400.316 112.288C398.481 112.288 397.052 113.163 396.028 114.912C395.004 116.619 394.492 119.307 394.492 122.976C394.492 126.901 394.94 129.675 395.836 131.296C396.775 132.875 398.076 133.664 399.74 133.664C401.873 133.664 403.729 132.363 405.308 129.76V115.104C404.583 114.165 403.815 113.461 403.004 112.992C402.236 112.523 401.34 112.288 400.316 112.288ZM433.123 125.984C433.763 131.147 436.494 133.728 441.315 133.728C444.216 133.728 447.118 132.789 450.019 130.912L454.051 136.416C452.387 137.867 450.403 139.019 448.099 139.872C445.795 140.683 443.256 141.088 440.483 141.088C436.686 141.088 433.464 140.341 430.819 138.848C428.174 137.312 426.168 135.2 424.803 132.512C423.48 129.781 422.819 126.624 422.819 123.04C422.819 119.627 423.459 116.555 424.739 113.824C426.062 111.051 427.96 108.875 430.435 107.296C432.952 105.675 435.939 104.864 439.395 104.864C442.638 104.864 445.454 105.568 447.843 106.976C450.232 108.341 452.067 110.347 453.347 112.992C454.67 115.595 455.331 118.709 455.331 122.336C455.331 123.744 455.267 124.96 455.139 125.984H433.123ZM439.395 111.648C437.56 111.648 436.088 112.331 434.979 113.696C433.87 115.019 433.208 117.067 432.995 119.84H445.475C445.39 114.379 443.363 111.648 439.395 111.648ZM488.65 104.992C490.698 104.992 492.575 105.333 494.282 106.016L492.426 120.224H486.026V113.952C484.149 114.293 482.485 115.317 481.034 117.024C479.583 118.731 478.453 120.885 477.642 123.488V133.216H484.362V140H463.05V133.216H467.53V112.736H463.05V106.016H475.274L477.066 113.632C478.303 110.731 479.861 108.576 481.738 107.168C483.615 105.717 485.919 104.992 488.65 104.992ZM530.609 116.256V123.552L505.649 139.04L501.105 132.128L521.841 119.904L501.105 108.064L505.585 100.768L530.609 116.256Z" fill="black"/>
<path d="M342.24 259.84L329.24 267.44L342.24 274.88L339.36 279.4L323.8 269.72V265.2L339.44 255.48L342.24 259.84ZM347.784 258.76H353.304L353.744 261.2C354.704 260.133 355.704 259.347 356.744 258.84C357.811 258.307 359.011 258.04 360.344 258.04C362.184 258.04 363.611 258.6 364.624 259.72C365.664 260.84 366.184 262.4 366.184 264.4V280H359.864V266.24C359.864 264.907 359.718 263.987 359.424 263.48C359.131 262.973 358.598 262.72 357.824 262.72C357.184 262.72 356.558 262.933 355.944 263.36C355.358 263.76 354.744 264.36 354.104 265.16V280H347.784V258.76ZM389.649 273.88C389.649 274.653 389.755 275.227 389.969 275.6C390.182 275.973 390.542 276.253 391.049 276.44L389.729 280.6C388.449 280.467 387.382 280.187 386.529 279.76C385.675 279.307 385.009 278.653 384.529 277.8C383.729 278.733 382.715 279.453 381.489 279.96C380.262 280.44 378.955 280.68 377.569 280.68C375.382 280.68 373.635 280.067 372.329 278.84C371.022 277.587 370.369 275.973 370.369 274C370.369 271.707 371.275 269.933 373.089 268.68C374.902 267.4 377.449 266.76 380.729 266.76H383.569V266C383.569 263.813 382.169 262.72 379.369 262.72C378.649 262.72 377.742 262.827 376.649 263.04C375.582 263.227 374.542 263.493 373.529 263.84L372.089 259.64C373.449 259.133 374.862 258.747 376.329 258.48C377.822 258.187 379.169 258.04 380.369 258.04C386.555 258.04 389.649 260.547 389.649 265.56V273.88ZM379.729 276.16C380.449 276.16 381.169 275.96 381.889 275.56C382.635 275.133 383.195 274.56 383.569 273.84V270.36H382.009C378.595 270.36 376.889 271.427 376.889 273.56C376.889 274.387 377.129 275.027 377.609 275.48C378.115 275.933 378.822 276.16 379.729 276.16ZM408.713 280H401.273L394.113 258.76H400.953L405.073 275.16L409.393 258.76H415.793L408.713 280ZM438.178 265.16V269.72L422.578 279.4L419.738 275.08L432.698 267.44L419.738 260.04L422.538 255.48L438.178 265.16Z" fill="black"/>
<path d="M473.24 385.84L460.24 393.44L473.24 400.88L470.36 405.4L454.8 395.72V391.2L470.44 381.48L473.24 385.84ZM494.504 384.04C496.024 384.04 497.131 384.547 497.824 385.56C498.544 386.547 498.904 388.12 498.904 390.28V406H493.504V391C493.504 390.227 493.424 389.693 493.264 389.4C493.131 389.107 492.864 388.96 492.464 388.96C491.718 388.96 490.984 389.427 490.264 390.36V406H485.784V391C485.784 390.227 485.704 389.693 485.544 389.4C485.411 389.107 485.144 388.96 484.744 388.96C483.998 388.96 483.264 389.427 482.544 390.36V406H477.064V384.76H481.664L482.104 386.8C482.798 385.84 483.478 385.147 484.144 384.72C484.838 384.267 485.638 384.04 486.544 384.04C487.371 384.04 488.064 384.253 488.624 384.68C489.184 385.08 489.584 385.707 489.824 386.56C491.264 384.88 492.824 384.04 494.504 384.04ZM520.649 399.88C520.649 400.653 520.755 401.227 520.969 401.6C521.182 401.973 521.542 402.253 522.049 402.44L520.729 406.6C519.449 406.467 518.382 406.187 517.529 405.76C516.675 405.307 516.009 404.653 515.529 403.8C514.729 404.733 513.715 405.453 512.489 405.96C511.262 406.44 509.955 406.68 508.569 406.68C506.382 406.68 504.635 406.067 503.329 404.84C502.022 403.587 501.369 401.973 501.369 400C501.369 397.707 502.275 395.933 504.089 394.68C505.902 393.4 508.449 392.76 511.729 392.76H514.569V392C514.569 389.813 513.169 388.72 510.369 388.72C509.649 388.72 508.742 388.827 507.649 389.04C506.582 389.227 505.542 389.493 504.529 389.84L503.089 385.64C504.449 385.133 505.862 384.747 507.329 384.48C508.822 384.187 510.169 384.04 511.369 384.04C517.555 384.04 520.649 386.547 520.649 391.56V399.88ZM510.729 402.16C511.449 402.16 512.169 401.96 512.889 401.56C513.635 401.133 514.195 400.56 514.569 399.84V396.36H513.009C509.595 396.36 507.889 397.427 507.889 399.56C507.889 400.387 508.129 401.027 508.609 401.48C509.115 401.933 509.822 402.16 510.729 402.16ZM535.913 373.64C537.006 373.64 537.9 373.987 538.593 374.68C539.286 375.347 539.633 376.187 539.633 377.2C539.633 378.24 539.286 379.093 538.593 379.76C537.9 380.427 537.006 380.76 535.913 380.76C534.82 380.76 533.913 380.427 533.193 379.76C532.5 379.067 532.153 378.213 532.153 377.2C532.153 376.187 532.5 375.347 533.193 374.68C533.913 373.987 534.82 373.64 535.913 373.64ZM539.713 401.68H545.153V406H527.393V401.68H533.393V389.08H527.593V384.76H539.713V401.68ZM550.738 384.76H556.258L556.698 387.2C557.658 386.133 558.658 385.347 559.697 384.84C560.764 384.307 561.964 384.04 563.298 384.04C565.138 384.04 566.564 384.6 567.578 385.72C568.618 386.84 569.138 388.4 569.138 390.4V406H562.818V392.24C562.818 390.907 562.671 389.987 562.378 389.48C562.084 388.973 561.551 388.72 560.778 388.72C560.138 388.72 559.511 388.933 558.898 389.36C558.311 389.76 557.698 390.36 557.058 391.16V406H550.738V384.76ZM593.162 391.16V395.72L577.562 405.4L574.722 401.08L587.682 393.44L574.722 386.04L577.522 381.48L593.162 391.16Z" fill="black"/>
<path d="M452.24 899.84L439.24 907.44L452.24 914.88L449.36 919.4L433.8 909.72V905.2L449.44 895.48L452.24 899.84ZM466.304 916.16C467.398 916.16 468.251 916 468.864 915.68C469.504 915.333 469.824 914.827 469.824 914.16C469.824 913.68 469.691 913.293 469.424 913C469.184 912.707 468.718 912.427 468.024 912.16C467.331 911.867 466.251 911.52 464.784 911.12C462.651 910.56 461.024 909.787 459.904 908.8C458.784 907.787 458.224 906.4 458.224 904.64C458.224 902.693 459.024 901.107 460.624 899.88C462.251 898.653 464.518 898.04 467.424 898.04C470.784 898.04 473.651 898.907 476.024 900.64L473.504 904.36C471.558 903.16 469.598 902.56 467.624 902.56C466.584 902.56 465.811 902.693 465.304 902.96C464.824 903.227 464.584 903.64 464.584 904.2C464.584 904.573 464.704 904.893 464.944 905.16C465.211 905.4 465.691 905.653 466.384 905.92C467.104 906.187 468.171 906.52 469.584 906.92C471.104 907.347 472.344 907.813 473.304 908.32C474.291 908.827 475.051 909.507 475.584 910.36C476.118 911.213 476.384 912.307 476.384 913.64C476.384 915.133 475.931 916.413 475.024 917.48C474.118 918.547 472.904 919.347 471.384 919.88C469.864 920.413 468.184 920.68 466.344 920.68C464.371 920.68 462.584 920.4 460.984 919.84C459.384 919.28 458.024 918.493 456.904 917.48L460.064 913.92C461.984 915.413 464.064 916.16 466.304 916.16ZM487.249 911.24C487.649 914.467 489.355 916.08 492.369 916.08C494.182 916.08 495.995 915.493 497.809 914.32L500.329 917.76C499.289 918.667 498.049 919.387 496.609 919.92C495.169 920.427 493.582 920.68 491.849 920.68C489.475 920.68 487.462 920.213 485.809 919.28C484.155 918.32 482.902 917 482.049 915.32C481.222 913.613 480.809 911.64 480.809 909.4C480.809 907.267 481.209 905.347 482.009 903.64C482.835 901.907 484.022 900.547 485.569 899.56C487.142 898.547 489.009 898.04 491.169 898.04C493.195 898.04 494.955 898.48 496.449 899.36C497.942 900.213 499.089 901.467 499.889 903.12C500.715 904.747 501.129 906.693 501.129 908.96C501.129 909.84 501.089 910.6 501.009 911.24H487.249ZM491.169 902.28C490.022 902.28 489.102 902.707 488.409 903.56C487.715 904.387 487.302 905.667 487.169 907.4H494.969C494.915 903.987 493.649 902.28 491.169 902.28ZM517.033 915.68C517.833 915.68 518.606 915.533 519.353 915.24C520.1 914.92 520.9 914.467 521.753 913.88L524.553 917.88C523.54 918.733 522.366 919.413 521.033 919.92C519.7 920.427 518.246 920.68 516.673 920.68C514.406 920.68 512.446 920.213 510.793 919.28C509.166 918.347 507.913 917.04 507.033 915.36C506.153 913.68 505.713 911.733 505.713 909.52C505.713 907.307 506.166 905.333 507.073 903.6C507.98 901.867 509.26 900.507 510.913 899.52C512.593 898.533 514.553 898.04 516.793 898.04C518.366 898.04 519.78 898.267 521.033 898.72C522.286 899.147 523.46 899.813 524.553 900.72L521.833 904.52C520.286 903.453 518.7 902.92 517.073 902.92C513.9 902.92 512.313 905.12 512.313 909.52C512.313 911.733 512.726 913.32 513.553 914.28C514.38 915.213 515.54 915.68 517.033 915.68ZM548.858 918.76C546.858 920.04 544.538 920.68 541.898 920.68C539.178 920.68 537.124 919.987 535.738 918.6C534.378 917.213 533.698 915.267 533.698 912.76V903.12H529.258V898.76H533.698V894.16L540.018 893.4V898.76H546.858L546.218 903.12H540.018V912.76C540.018 913.8 540.258 914.547 540.738 915C541.218 915.453 541.991 915.68 543.058 915.68C544.391 915.68 545.631 915.36 546.778 914.72L548.858 918.76ZM562.882 887.64C563.975 887.64 564.869 887.987 565.562 888.68C566.255 889.347 566.602 890.187 566.602 891.2C566.602 892.24 566.255 893.093 565.562 893.76C564.869 894.427 563.975 894.76 562.882 894.76C561.789 894.76 560.882 894.427 560.162 893.76C559.469 893.067 559.122 892.213 559.122 891.2C559.122 890.187 559.469 889.347 560.162 888.68C560.882 887.987 561.789 887.64 562.882 887.64ZM566.682 915.68H572.122V920H554.362V915.68H560.362V903.08H554.562V898.76H566.682V915.68ZM586.906 898.04C590.133 898.04 592.653 899.067 594.466 901.12C596.306 903.147 597.226 905.88 597.226 909.32C597.226 912.893 596.32 915.68 594.506 917.68C592.693 919.68 590.16 920.68 586.906 920.68C583.653 920.68 581.12 919.693 579.306 917.72C577.493 915.72 576.586 912.933 576.586 909.36C576.586 907.093 576.986 905.12 577.786 903.44C578.613 901.733 579.8 900.413 581.346 899.48C582.92 898.52 584.773 898.04 586.906 898.04ZM586.906 902.72C585.6 902.72 584.64 903.253 584.026 904.32C583.413 905.36 583.106 907.04 583.106 909.36C583.106 911.707 583.413 913.413 584.026 914.48C584.64 915.52 585.6 916.04 586.906 916.04C588.213 916.04 589.173 915.507 589.786 914.44C590.4 913.373 590.706 911.667 590.706 909.32C590.706 907.027 590.4 905.36 589.786 904.32C589.173 903.253 588.213 902.72 586.906 902.72ZM601.691 898.76H607.211L607.651 901.2C608.611 900.133 609.611 899.347 610.651 898.84C611.717 898.307 612.917 898.04 614.251 898.04C616.091 898.04 617.517 898.6 618.531 899.72C619.571 900.84 620.091 902.4 620.091 904.4V920H613.771V906.24C613.771 904.907 613.624 903.987 613.331 903.48C613.037 902.973 612.504 902.72 611.731 902.72C611.091 902.72 610.464 902.933 609.851 903.36C609.264 903.76 608.651 904.36 608.011 905.16V920H601.691V898.76ZM644.115 905.16V909.72L628.515 919.4L625.675 915.08L638.635 907.44L625.675 900.04L628.475 895.48L644.115 905.16Z" fill="black"/>
<path d="M303.24 1082.84L290.24 1090.44L303.24 1097.88L300.36 1102.4L284.8 1092.72V1088.2L300.44 1078.48L303.24 1082.84ZM322.304 1072.64C325.024 1072.64 327.451 1073.09 329.584 1074L327.824 1078.12C326.464 1077.59 324.958 1077.32 323.304 1077.32C322.051 1077.32 321.144 1077.55 320.584 1078C320.051 1078.45 319.784 1079.2 319.784 1080.24V1083.08H326.704L325.984 1087.48H319.784V1103H313.504V1087.48H309.024V1083.08H313.504V1080.04C313.504 1077.85 314.264 1076.08 315.784 1074.72C317.331 1073.33 319.504 1072.64 322.304 1072.64ZM341.969 1081.04C345.195 1081.04 347.715 1082.07 349.529 1084.12C351.369 1086.15 352.289 1088.88 352.289 1092.32C352.289 1095.89 351.382 1098.68 349.569 1100.68C347.755 1102.68 345.222 1103.68 341.969 1103.68C338.715 1103.68 336.182 1102.69 334.369 1100.72C332.555 1098.72 331.649 1095.93 331.649 1092.36C331.649 1090.09 332.049 1088.12 332.849 1086.44C333.675 1084.73 334.862 1083.41 336.409 1082.48C337.982 1081.52 339.835 1081.04 341.969 1081.04ZM341.969 1085.72C340.662 1085.72 339.702 1086.25 339.089 1087.32C338.475 1088.36 338.169 1090.04 338.169 1092.36C338.169 1094.71 338.475 1096.41 339.089 1097.48C339.702 1098.52 340.662 1099.04 341.969 1099.04C343.275 1099.04 344.235 1098.51 344.849 1097.44C345.462 1096.37 345.769 1094.67 345.769 1092.32C345.769 1090.03 345.462 1088.36 344.849 1087.32C344.235 1086.25 343.275 1085.72 341.969 1085.72ZM365.953 1081.04C369.18 1081.04 371.7 1082.07 373.513 1084.12C375.353 1086.15 376.273 1088.88 376.273 1092.32C376.273 1095.89 375.366 1098.68 373.553 1100.68C371.74 1102.68 369.206 1103.68 365.953 1103.68C362.7 1103.68 360.166 1102.69 358.353 1100.72C356.54 1098.72 355.633 1095.93 355.633 1092.36C355.633 1090.09 356.033 1088.12 356.833 1086.44C357.66 1084.73 358.846 1083.41 360.393 1082.48C361.966 1081.52 363.82 1081.04 365.953 1081.04ZM365.953 1085.72C364.646 1085.72 363.686 1086.25 363.073 1087.32C362.46 1088.36 362.153 1090.04 362.153 1092.36C362.153 1094.71 362.46 1096.41 363.073 1097.48C363.686 1098.52 364.646 1099.04 365.953 1099.04C367.26 1099.04 368.22 1098.51 368.833 1097.44C369.446 1096.37 369.753 1094.67 369.753 1092.32C369.753 1090.03 369.446 1088.36 368.833 1087.32C368.22 1086.25 367.26 1085.72 365.953 1085.72ZM399.858 1101.76C397.858 1103.04 395.538 1103.68 392.898 1103.68C390.178 1103.68 388.124 1102.99 386.738 1101.6C385.378 1100.21 384.698 1098.27 384.698 1095.76V1086.12H380.258V1081.76H384.698V1077.16L391.018 1076.4V1081.76H397.858L397.218 1086.12H391.018V1095.76C391.018 1096.8 391.258 1097.55 391.738 1098C392.218 1098.45 392.991 1098.68 394.058 1098.68C395.391 1098.68 396.631 1098.36 397.778 1097.72L399.858 1101.76ZM410.202 1094.24C410.602 1097.47 412.309 1099.08 415.322 1099.08C417.135 1099.08 418.949 1098.49 420.762 1097.32L423.282 1100.76C422.242 1101.67 421.002 1102.39 419.562 1102.92C418.122 1103.43 416.535 1103.68 414.802 1103.68C412.429 1103.68 410.415 1103.21 408.762 1102.28C407.109 1101.32 405.855 1100 405.002 1098.32C404.175 1096.61 403.762 1094.64 403.762 1092.4C403.762 1090.27 404.162 1088.35 404.962 1086.64C405.789 1084.91 406.975 1083.55 408.522 1082.56C410.095 1081.55 411.962 1081.04 414.122 1081.04C416.149 1081.04 417.909 1081.48 419.402 1082.36C420.895 1083.21 422.042 1084.47 422.842 1086.12C423.669 1087.75 424.082 1089.69 424.082 1091.96C424.082 1092.84 424.042 1093.6 423.962 1094.24H410.202ZM414.122 1085.28C412.975 1085.28 412.055 1085.71 411.362 1086.56C410.669 1087.39 410.255 1088.67 410.122 1090.4H417.922C417.869 1086.99 416.602 1085.28 414.122 1085.28ZM444.906 1081.12C446.186 1081.12 447.36 1081.33 448.426 1081.76L447.266 1090.64H443.266V1086.72C442.093 1086.93 441.053 1087.57 440.146 1088.64C439.24 1089.71 438.533 1091.05 438.026 1092.68V1098.76H442.226V1103H428.906V1098.76H431.706V1085.96H428.906V1081.76H436.546L437.666 1086.52C438.44 1084.71 439.413 1083.36 440.586 1082.48C441.76 1081.57 443.2 1081.12 444.906 1081.12ZM471.131 1088.16V1092.72L455.531 1102.4L452.691 1098.08L465.651 1090.44L452.691 1083.04L455.491 1078.48L471.131 1088.16Z" fill="white"/>
<path d="M468.992 461.872L458.592 467.952L468.992 473.904L466.688 477.52L454.24 469.776V466.16L466.752 458.384L468.992 461.872ZM487.732 473.104C487.732 473.723 487.817 474.181 487.988 474.48C488.158 474.779 488.446 475.003 488.852 475.152L487.796 478.48C486.772 478.373 485.918 478.149 485.236 477.808C484.553 477.445 484.02 476.923 483.636 476.24C482.996 476.987 482.185 477.563 481.204 477.968C480.222 478.352 479.177 478.544 478.068 478.544C476.318 478.544 474.921 478.053 473.876 477.072C472.83 476.069 472.308 474.779 472.308 473.2C472.308 471.365 473.033 469.947 474.484 468.944C475.934 467.92 477.972 467.408 480.595 467.408H482.868V466.8C482.868 465.051 481.748 464.176 479.508 464.176C478.932 464.176 478.206 464.261 477.332 464.432C476.478 464.581 475.646 464.795 474.836 465.072L473.684 461.712C474.772 461.307 475.902 460.997 477.076 460.784C478.27 460.549 479.348 460.432 480.308 460.432C485.257 460.432 487.732 462.437 487.732 466.448V473.104ZM479.796 474.928C480.372 474.928 480.948 474.768 481.524 474.448C482.121 474.107 482.569 473.648 482.868 473.072V470.288H481.62C478.889 470.288 477.524 471.141 477.524 472.848C477.524 473.509 477.716 474.021 478.1 474.384C478.505 474.747 479.07 474.928 479.796 474.928ZM505.575 460.496C506.599 460.496 507.538 460.667 508.391 461.008L507.463 468.112H504.263V464.976C503.324 465.147 502.492 465.659 501.767 466.512C501.042 467.365 500.476 468.443 500.071 469.744V474.608H503.431V478H492.775V474.608H495.015V464.368H492.775V461.008H498.887L499.783 464.816C500.402 463.365 501.18 462.288 502.119 461.584C503.058 460.859 504.21 460.496 505.575 460.496ZM527.099 477.008C525.499 478.032 523.643 478.544 521.531 478.544C519.355 478.544 517.712 477.989 516.603 476.88C515.515 475.771 514.971 474.213 514.971 472.208V464.496H511.419V461.008H514.971V457.328L520.027 456.72V461.008H525.499L524.987 464.496H520.027V472.208C520.027 473.04 520.219 473.637 520.603 474C520.987 474.363 521.605 474.544 522.459 474.544C523.525 474.544 524.517 474.288 525.435 473.776L527.099 477.008ZM538.318 452.112C539.193 452.112 539.907 452.389 540.462 452.944C541.017 453.477 541.294 454.149 541.294 454.96C541.294 455.792 541.017 456.475 540.462 457.008C539.907 457.541 539.193 457.808 538.318 457.808C537.443 457.808 536.718 457.541 536.142 457.008C535.587 456.453 535.31 455.771 535.31 454.96C535.31 454.149 535.587 453.477 536.142 452.944C536.718 452.389 537.443 452.112 538.318 452.112ZM541.358 474.544H545.71V478H531.502V474.544H536.302V464.464H531.662V461.008H541.358V474.544ZM559.202 474.544C559.842 474.544 560.46 474.427 561.058 474.192C561.655 473.936 562.295 473.573 562.978 473.104L565.218 476.304C564.407 476.987 563.468 477.531 562.402 477.936C561.335 478.341 560.172 478.544 558.914 478.544C557.1 478.544 555.532 478.171 554.21 477.424C552.908 476.677 551.906 475.632 551.202 474.288C550.498 472.944 550.146 471.387 550.146 469.616C550.146 467.845 550.508 466.267 551.234 464.88C551.959 463.493 552.983 462.405 554.306 461.616C555.65 460.827 557.218 460.432 559.01 460.432C560.268 460.432 561.399 460.613 562.402 460.976C563.404 461.317 564.343 461.851 565.218 462.576L563.042 465.616C561.804 464.763 560.535 464.336 559.234 464.336C556.695 464.336 555.426 466.096 555.426 469.616C555.426 471.387 555.756 472.656 556.418 473.424C557.079 474.171 558.007 474.544 559.202 474.544ZM578.229 472.656C578.229 473.915 578.954 474.544 580.405 474.544C581.194 474.544 582.005 474.373 582.837 474.032L584.021 477.424C582.656 478.171 581.024 478.544 579.125 478.544C577.141 478.544 575.648 477.979 574.645 476.848C573.664 475.696 573.173 474.085 573.173 472.016V457.712H568.181V454.256H578.229V472.656ZM592.937 470.992C593.257 473.573 594.622 474.864 597.033 474.864C598.483 474.864 599.934 474.395 601.385 473.456L603.401 476.208C602.569 476.933 601.577 477.509 600.425 477.936C599.273 478.341 598.003 478.544 596.617 478.544C594.718 478.544 593.107 478.171 591.785 477.424C590.462 476.656 589.459 475.6 588.777 474.256C588.115 472.891 587.785 471.312 587.785 469.52C587.785 467.813 588.105 466.277 588.745 464.912C589.406 463.525 590.355 462.437 591.593 461.648C592.851 460.837 594.345 460.432 596.073 460.432C597.694 460.432 599.102 460.784 600.297 461.488C601.491 462.171 602.409 463.173 603.049 464.496C603.71 465.797 604.041 467.355 604.041 469.168C604.041 469.872 604.009 470.48 603.944 470.992H592.937ZM596.073 463.824C595.155 463.824 594.419 464.165 593.865 464.848C593.31 465.509 592.979 466.533 592.873 467.92H599.113C599.07 465.189 598.057 463.824 596.073 463.824ZM622.492 466.128V469.776L610.012 477.52L607.74 474.064L618.108 467.952L607.74 462.032L609.98 458.384L622.492 466.128Z" fill="black"/>
<path d="M471.992 552.872L461.592 558.952L471.992 564.904L469.688 568.52L457.24 560.776V557.16L469.752 549.384L471.992 552.872ZM487.244 544.712C489.42 544.712 491.361 545.075 493.068 545.8L491.66 549.096C490.572 548.669 489.366 548.456 488.044 548.456C487.041 548.456 486.316 548.637 485.868 549C485.441 549.363 485.228 549.96 485.228 550.792V553.064H490.764L490.188 556.584H485.228V569H480.204V556.584H476.62V553.064H480.204V550.632C480.204 548.883 480.812 547.464 482.028 546.376C483.265 545.267 485.004 544.712 487.244 544.712ZM502.943 543.112C503.818 543.112 504.532 543.389 505.087 543.944C505.642 544.477 505.919 545.149 505.919 545.96C505.919 546.792 505.642 547.475 505.087 548.008C504.532 548.541 503.818 548.808 502.943 548.808C502.068 548.808 501.343 548.541 500.767 548.008C500.212 547.453 499.935 546.771 499.935 545.96C499.935 545.149 500.212 544.477 500.767 543.944C501.343 543.389 502.068 543.112 502.943 543.112ZM505.983 565.544H510.335V569H496.127V565.544H500.927V555.464H496.287V552.008H505.983V565.544ZM531.059 553C529.949 553.448 528.317 553.672 526.163 553.672C527.272 554.163 528.093 554.749 528.627 555.432C529.181 556.115 529.458 556.989 529.458 558.056C529.458 559.144 529.16 560.125 528.562 561C527.965 561.853 527.123 562.525 526.035 563.016C524.947 563.507 523.688 563.752 522.259 563.752C521.555 563.752 520.893 563.688 520.275 563.56C520.104 563.645 519.965 563.784 519.859 563.976C519.773 564.147 519.731 564.328 519.731 564.52C519.731 564.84 519.848 565.096 520.083 565.288C520.339 565.459 520.84 565.544 521.587 565.544H524.403C525.683 565.544 526.813 565.757 527.795 566.184C528.776 566.611 529.533 567.197 530.067 567.944C530.6 568.691 530.867 569.533 530.867 570.472C530.867 572.243 530.088 573.619 528.531 574.6C526.995 575.603 524.744 576.104 521.779 576.104C519.667 576.104 518.003 575.88 516.786 575.432C515.592 575.005 514.749 574.397 514.259 573.608C513.789 572.819 513.555 571.827 513.555 570.632H518.035C518.035 571.165 518.131 571.581 518.323 571.88C518.536 572.179 518.92 572.403 519.475 572.552C520.029 572.701 520.84 572.776 521.907 572.776C523.4 572.776 524.424 572.605 524.979 572.264C525.555 571.923 525.843 571.443 525.843 570.824C525.843 570.312 525.629 569.896 525.203 569.576C524.797 569.277 524.189 569.128 523.379 569.128H520.691C518.941 569.128 517.629 568.819 516.755 568.2C515.88 567.56 515.443 566.749 515.443 565.768C515.443 565.128 515.603 564.531 515.923 563.976C516.264 563.4 516.733 562.92 517.331 562.536C516.264 561.96 515.496 561.288 515.027 560.52C514.557 559.731 514.323 558.781 514.323 557.672C514.323 556.413 514.643 555.315 515.283 554.376C515.923 553.437 516.819 552.723 517.971 552.232C519.123 551.72 520.435 551.464 521.907 551.464C523.613 551.507 525.064 551.347 526.259 550.984C527.453 550.6 528.669 550.035 529.907 549.288L531.059 553ZM522.035 554.76C521.224 554.76 520.584 555.016 520.115 555.528C519.667 556.04 519.443 556.733 519.443 557.608C519.443 558.525 519.677 559.24 520.147 559.752C520.616 560.264 521.245 560.52 522.035 560.52C522.867 560.52 523.507 560.275 523.955 559.784C524.403 559.272 524.627 558.525 524.627 557.544C524.627 555.688 523.763 554.76 522.035 554.76ZM539.046 563.624C539.046 564.413 539.185 564.979 539.462 565.32C539.761 565.64 540.198 565.8 540.774 565.8C541.286 565.8 541.809 565.64 542.342 565.32C542.875 564.979 543.313 564.52 543.654 563.944V552.008H548.71V569H544.294L544.07 567.016C543.515 567.827 542.769 568.456 541.83 568.904C540.891 569.331 539.899 569.544 538.854 569.544C537.254 569.544 536.038 569.085 535.206 568.168C534.395 567.229 533.99 565.928 533.99 564.264V552.008H539.046V563.624ZM566.138 551.496C567.162 551.496 568.1 551.667 568.954 552.008L568.026 559.112H564.826V555.976C563.887 556.147 563.055 556.659 562.33 557.512C561.604 558.365 561.039 559.443 560.634 560.744V565.608H563.994V569H553.338V565.608H555.578V555.368H553.338V552.008H559.45L560.345 555.816C560.964 554.365 561.743 553.288 562.682 552.584C563.62 551.859 564.772 551.496 566.138 551.496ZM576.749 561.992C577.069 564.573 578.434 565.864 580.845 565.864C582.296 565.864 583.746 565.395 585.197 564.456L587.213 567.208C586.381 567.933 585.389 568.509 584.237 568.936C583.085 569.341 581.816 569.544 580.429 569.544C578.53 569.544 576.92 569.171 575.597 568.424C574.274 567.656 573.272 566.6 572.589 565.256C571.928 563.891 571.597 562.312 571.597 560.52C571.597 558.813 571.917 557.277 572.557 555.912C573.218 554.525 574.168 553.437 575.405 552.648C576.664 551.837 578.157 551.432 579.885 551.432C581.506 551.432 582.914 551.784 584.109 552.488C585.304 553.171 586.221 554.173 586.861 555.496C587.522 556.797 587.853 558.355 587.853 560.168C587.853 560.872 587.821 561.48 587.757 561.992H576.749ZM579.885 554.824C578.968 554.824 578.232 555.165 577.677 555.848C577.122 556.509 576.792 557.533 576.685 558.92H582.925C582.882 556.189 581.869 554.824 579.885 554.824ZM606.305 557.128V560.776L593.825 568.52L591.553 565.064L601.921 558.952L591.553 553.032L593.793 549.384L606.305 557.128Z" fill="black"/>
<path d="M520.992 673.872L510.592 679.952L520.992 685.904L518.688 689.52L506.24 681.776V678.16L518.752 670.384L520.992 673.872ZM534.836 672.432C536.969 672.432 538.537 673.221 539.54 674.8C540.542 676.357 541.044 678.576 541.044 681.456C541.044 683.205 540.777 684.773 540.244 686.16C539.732 687.525 538.985 688.603 538.004 689.392C537.022 690.16 535.86 690.544 534.516 690.544C532.873 690.544 531.529 689.957 530.484 688.784V696.56L525.428 697.104V673.008H529.908L530.132 674.896C530.793 674.064 531.529 673.445 532.34 673.04C533.172 672.635 534.004 672.432 534.836 672.432ZM533.268 676.176C532.201 676.176 531.273 676.837 530.484 678.16V685.328C530.846 685.84 531.22 686.224 531.604 686.48C532.009 686.715 532.468 686.832 532.98 686.832C533.918 686.832 534.622 686.416 535.092 685.584C535.582 684.731 535.828 683.376 535.828 681.52C535.828 679.515 535.614 678.128 535.188 677.36C534.761 676.571 534.121 676.176 533.268 676.176ZM559.367 678.128V681.776L546.887 689.52L544.615 686.064L554.983 679.952L544.615 674.032L546.855 670.384L559.367 678.128Z" fill="black"/>
<path d="M110.24 659.84L97.24 667.44L110.24 674.88L107.36 679.4L91.8 669.72V665.2L107.44 655.48L110.24 659.84ZM133.664 673.88C133.664 674.653 133.771 675.227 133.984 675.6C134.198 675.973 134.558 676.253 135.064 676.44L133.744 680.6C132.464 680.467 131.398 680.187 130.544 679.76C129.691 679.307 129.024 678.653 128.544 677.8C127.744 678.733 126.731 679.453 125.504 679.96C124.278 680.44 122.971 680.68 121.584 680.68C119.398 680.68 117.651 680.067 116.344 678.84C115.038 677.587 114.384 675.973 114.384 674C114.384 671.707 115.291 669.933 117.104 668.68C118.918 667.4 121.464 666.76 124.744 666.76H127.584V666C127.584 663.813 126.184 662.72 123.384 662.72C122.664 662.72 121.758 662.827 120.664 663.04C119.598 663.227 118.558 663.493 117.544 663.84L116.104 659.64C117.464 659.133 118.878 658.747 120.344 658.48C121.838 658.187 123.184 658.04 124.384 658.04C130.571 658.04 133.664 660.547 133.664 665.56V673.88ZM123.744 676.16C124.464 676.16 125.184 675.96 125.904 675.56C126.651 675.133 127.211 674.56 127.584 673.84V670.36H126.024C122.611 670.36 120.904 671.427 120.904 673.56C120.904 674.387 121.144 675.027 121.624 675.48C122.131 675.933 122.838 676.16 123.744 676.16ZM148.289 676.16C149.382 676.16 150.235 676 150.849 675.68C151.489 675.333 151.809 674.827 151.809 674.16C151.809 673.68 151.675 673.293 151.409 673C151.169 672.707 150.702 672.427 150.009 672.16C149.315 671.867 148.235 671.52 146.769 671.12C144.635 670.56 143.009 669.787 141.889 668.8C140.769 667.787 140.209 666.4 140.209 664.64C140.209 662.693 141.009 661.107 142.609 659.88C144.235 658.653 146.502 658.04 149.409 658.04C152.769 658.04 155.635 658.907 158.009 660.64L155.489 664.36C153.542 663.16 151.582 662.56 149.609 662.56C148.569 662.56 147.795 662.693 147.289 662.96C146.809 663.227 146.569 663.64 146.569 664.2C146.569 664.573 146.689 664.893 146.929 665.16C147.195 665.4 147.675 665.653 148.369 665.92C149.089 666.187 150.155 666.52 151.569 666.92C153.089 667.347 154.329 667.813 155.289 668.32C156.275 668.827 157.035 669.507 157.569 670.36C158.102 671.213 158.369 672.307 158.369 673.64C158.369 675.133 157.915 676.413 157.009 677.48C156.102 678.547 154.889 679.347 153.369 679.88C151.849 680.413 150.169 680.68 148.329 680.68C146.355 680.68 144.569 680.4 142.969 679.84C141.369 679.28 140.009 678.493 138.889 677.48L142.049 673.92C143.969 675.413 146.049 676.16 148.289 676.16ZM172.913 647.64C174.006 647.64 174.9 647.987 175.593 648.68C176.286 649.347 176.633 650.187 176.633 651.2C176.633 652.24 176.286 653.093 175.593 653.76C174.9 654.427 174.006 654.76 172.913 654.76C171.82 654.76 170.913 654.427 170.193 653.76C169.5 653.067 169.153 652.213 169.153 651.2C169.153 650.187 169.5 649.347 170.193 648.68C170.913 647.987 171.82 647.64 172.913 647.64ZM176.713 675.68H182.153V680H164.393V675.68H170.393V663.08H164.593V658.76H176.713V675.68ZM206.138 650.32V680H200.538L200.218 677.68C199.578 678.587 198.764 679.32 197.778 679.88C196.791 680.413 195.644 680.68 194.338 680.68C191.778 680.68 189.831 679.667 188.498 677.64C187.191 675.613 186.538 672.84 186.538 669.32C186.538 667.133 186.884 665.187 187.577 663.48C188.271 661.773 189.258 660.44 190.538 659.48C191.818 658.52 193.311 658.04 195.018 658.04C196.938 658.04 198.538 658.707 199.818 660.04V649.64L206.138 650.32ZM196.697 662.68C195.551 662.68 194.658 663.227 194.018 664.32C193.378 665.387 193.058 667.067 193.058 669.36C193.058 671.813 193.338 673.547 193.898 674.56C194.484 675.547 195.298 676.04 196.338 676.04C197.671 676.04 198.831 675.227 199.818 673.6V664.44C199.364 663.853 198.884 663.413 198.378 663.12C197.898 662.827 197.338 662.68 196.697 662.68ZM217.202 671.24C217.602 674.467 219.309 676.08 222.322 676.08C224.135 676.08 225.949 675.493 227.762 674.32L230.282 677.76C229.242 678.667 228.002 679.387 226.562 679.92C225.122 680.427 223.535 680.68 221.802 680.68C219.429 680.68 217.415 680.213 215.762 679.28C214.109 678.32 212.855 677 212.002 675.32C211.175 673.613 210.762 671.64 210.762 669.4C210.762 667.267 211.162 665.347 211.962 663.64C212.789 661.907 213.975 660.547 215.522 659.56C217.095 658.547 218.962 658.04 221.122 658.04C223.149 658.04 224.909 658.48 226.402 659.36C227.895 660.213 229.042 661.467 229.842 663.12C230.669 664.747 231.082 666.693 231.082 668.96C231.082 669.84 231.042 670.6 230.962 671.24H217.202ZM221.122 662.28C219.975 662.28 219.055 662.707 218.362 663.56C217.669 664.387 217.255 665.667 217.122 667.4H224.922C224.869 663.987 223.602 662.28 221.122 662.28ZM254.146 665.16V669.72L238.546 679.4L235.706 675.08L248.666 667.44L235.706 660.04L238.506 655.48L254.146 665.16Z" fill="black"/>
</svg>
